<svg xmlns="http://www.w3.org/2000/svg" viewBox="0 -960 960 960"><path d="M480-440.27 278.384-238.654q-8.307 8.307-19.769 8.25-11.461-.058-19.961-8.558-8.192-8.5-8.038-19.615.154-11.115 8.346-19.307L440.27-480 238.962-682.116q-7.808-7.807-8-19.115-.192-11.307 8-19.807 8.192-8.5 19.461-8.75 11.269-.25 19.961 8.25L480-519.73l201.808-201.808q8.115-8.115 19.577-8.058 11.461.058 20.153 8.558 8 8.5 7.846 19.615-.154 11.115-8.346 19.307L519.73-480l201.308 202.116q7.808 7.807 8 19.115.192 11.307-8 19.807-8.192 8.5-19.461 8.75-11.269.25-19.769-8.442L480-440.27Z"/></svg>