<svg xmlns="http://www.w3.org/2000/svg"  viewBox="0 -960 960 960"><path d="M481.154-142.117q-141.038 0-239.461-98.422Q143.271-338.962 143.271-480q0-115.46 72.46-208.036 72.46-92.577 190.344-119.193 14.23-3.154 24-.192 9.769 2.961 15.365 10.673 5.596 7.711 5.462 19.422-.135 11.712-7.019 25.058-10.269 21.231-15.461 44.12-5.193 22.89-5.193 48.148 0 99.135 69.395 168.53 69.395 69.394 168.53 69.394 28.321 0 53.021-6.415t44.632-14.622q12.769-5.616 23.269-5.462 10.5.154 17.323 4.962 7.369 5 10.138 13.791 2.769 8.79 0 21.824-22.616 113.96-115.347 189.921-92.731 75.96-213.036 75.96Zm.155-55.96q88.653 0 159.46-49.865 70.808-49.866 103.616-129.981-21.141 5.455-42.186 8.631-21.045 3.177-40.911 3.177-122.177 0-208.098-85.921t-85.921-208.098q0-19.866 3.177-40.911 3.176-21.045 8.631-42.186-80.115 32.808-129.981 103.572-49.865 70.765-49.865 159.726 0 116.776 82.608 199.316 82.609 82.54 199.47 82.54Zm-9.347-272.731Z"/></svg>