<svg xmlns="http://www.w3.org/2000/svg" viewBox="0 -960 960 960"><path d="M480-358.077q50.808 0 86.462-35.558 35.653-35.557 35.653-86.365 0-50.808-35.653-86.462-35.654-35.653-86.462-35.653t-86.365 35.653Q358.077-530.808 358.077-480t35.558 86.365q35.557 35.558 86.365 35.558Zm0 55.96q-74.115 0-125.999-51.884T302.117-480q0-74.115 51.884-126.095Q405.885-658.076 480-658.076t126.095 51.981q51.981 51.98 51.981 126.095 0 74.115-51.981 125.999-51.98 51.884-126.095 51.884ZM80-452.116q-11.634 0-19.76-8.129-8.124-8.128-8.124-19.768 0-11.641 8.125-19.852T80-508.076h90.001q11.634 0 19.855 8.225 8.221 8.224 8.221 19.864 0 11.641-8.221 19.756t-19.855 8.115H80Zm709.999 0q-11.634 0-19.759-8.129-8.125-8.128-8.125-19.768 0-11.641 8.125-19.852t19.759-8.211H880q11.634 0 19.855 8.225 8.221 8.224 8.221 19.864 0 11.641-8.221 19.756T880-452.116h-90.001ZM479.987-762.115q-11.641 0-19.756-8.125t-8.115-19.759V-880q0-11.634 8.129-19.855 8.128-8.221 19.768-8.221 11.641 0 19.852 8.221T508.076-880v90.001q0 11.634-8.225 19.759-8.224 8.125-19.864 8.125Zm0 709.999q-11.641 0-19.756-8.125T452.116-80v-90.001q0-11.634 8.129-19.855 8.128-8.221 19.768-8.221 11.641 0 19.852 8.221t8.211 19.855V-80q0 11.634-8.225 19.76-8.224 8.124-19.864 8.124ZM241.539-680l-50.308-48.924q-8.615-7.807-8.211-19.268.404-11.462 8.636-20.269 8.19-8.808 19.709-8.961 11.519-.154 19.711 8.461l49.309 49.924q8.499 8.807 8.499 19.961 0 11.153-8.307 19.768-8 8.808-19.211 8.154-11.211-.654-19.827-8.846Zm487.385 488.769-49.309-49.924q-8.192-8.615-8.346-19.826-.153-11.212 8.346-19.904 7.616-8.615 18.923-7.961 11.307.654 20.115 8.846l50.308 48.924q8.423 7.807 8.019 19.268-.404 11.462-8.636 20.269-8.19 8.808-19.709 8.961-11.519.154-19.711-8.653Zm-49.616-488.192q-8.808-8-8.154-19.211.654-11.211 8.846-20.019l48.924-50.308q7.807-8.423 19.268-8.019 11.462.404 20.269 8.636 8.808 8.19 8.961 19.709.154 11.519-8.461 19.711l-49.924 49.309q-8.807 8.499-19.961 8.499-11.153 0-19.768-8.307ZM191.539-191.455q-8.808-8.391-8.961-19.91-.154-11.519 8.653-19.711l49.924-49.309q8.615-8.192 19.826-8.346 11.212-.153 19.904 8.346 8.422 7.616 7.672 18.923-.75 11.307-8.557 19.923l-48.924 50.308q-8.192 8.807-19.461 8.346-11.269-.462-20.076-8.57ZM480-480Z"/></svg>